<?xml version="1.0" encoding="utf-8"?>
<!-- Svg Vector Icons : http://www.onlinewebfonts.com/icon -->
<!DOCTYPE svg PUBLIC "-//W3C//DTD SVG 1.1//EN" "http://www.w3.org/Graphics/SVG/1.1/DTD/svg11.dtd">
<svg version="1.1" xmlns="http://www.w3.org/2000/svg" xmlns:xlink="http://www.w3.org/1999/xlink" x="0px" y="0px" viewBox="0 0 1000 1000" enable-background="new 0 0 1000 1000" xml:space="preserve">
<metadata> Svg Vector Icons : http://www.onlinewebfonts.com/icon </metadata>
<g><g><path d="M786.3,298.1l14.6-14.6l11.5,11.5c4.4,4.4,10.2,6.6,16.1,6.6c5.8,0,11.6-2.2,16-6.6c8.9-8.9,8.9-23.2,0-32.1l-56.1-56.1c-8.9-8.9-23.2-8.9-32.1,0c-8.9,8.9-8.9,23.2,0,32.1l12.5,12.5l-16.4,16.4c-52.9-42.2-116.6-71.5-186.2-83v-38.6h41.1c23.2,0,42-18.9,42-42V52c0-23.2-18.9-42-42-42H392.8c-23.2,0-42,18.9-42,42v52.2c0,23.2,18.9,42,42,42h41.1v38.6C241.8,216.5,94.7,383.8,94.7,584.7C94.7,808.2,276.5,990,500,990c223.5,0,405.3-181.8,405.3-405.3C905.3,472.9,859.8,371.5,786.3,298.1z M396.2,55.4h207.7v45.5H396.2V55.4z M479.3,146.3h41.4V180c-6.9-0.3-13.8-0.5-20.7-0.5s-13.9,0.2-20.7,0.5V146.3z M500,944.6c-198.4,0-359.9-161.4-359.9-359.9c0-198.4,161.4-359.9,359.9-359.9c198.4,0,359.9,161.4,359.9,359.9C859.9,783.2,698.4,944.6,500,944.6z"/><path d="M761.7,562c-12.5,0-22.7,10.2-22.7,22.7c0,131.8-107.2,239-239,239c-131.8,0-239-107.2-239-239c0-122.2,92.2-223.3,210.7-237.3l-25.5,25.5c-8.9,8.9-8.9,23.2,0,32.1c4.4,4.4,10.2,6.6,16,6.6c5.8,0,11.6-2.2,16.1-6.6l61.4-61.4c4.3-4.3,6.6-10,6.6-16s-2.4-11.8-6.6-16l-60.3-60.3c-8.9-8.9-23.2-8.9-32.1,0c-8.9,8.9-8.9,23.2,0,32.1l19,19c-141,16.7-250.6,137-250.6,282.4c0,156.8,127.6,284.4,284.4,284.4c156.8,0,284.4-127.6,284.4-284.4C784.4,572.2,774.2,562,761.7,562z"/><path d="M500,506.3c-43.2,0-78.4,35.2-78.4,78.4s35.2,78.4,78.4,78.4c43.2,0,78.4-35.2,78.4-78.4c0-10.7-2.2-20.9-6.1-30.2l143.8-139.7c9-8.7,9.2-23.1,0.5-32.1c-8.7-9-23.1-9.2-32.1-0.5L543.3,519.4C530.9,511.1,516,506.3,500,506.3z M500,617.7c-18.2,0-33-14.8-33-33c0-18.2,14.8-33,33-33c18.2,0,33,14.8,33,33C533,602.9,518.2,617.7,500,617.7z"/></g><g></g><g></g><g></g><g></g><g></g><g></g><g></g><g></g><g></g><g></g><g></g><g></g><g></g><g></g><g></g></g>
</svg>